<?xml version="1.0" standalone="no"?>
<!DOCTYPE svg PUBLIC "-//W3C//DTD SVG 20010904//EN"
 "http://www.w3.org/TR/2001/REC-SVG-20010904/DTD/svg10.dtd">
<svg version="1.0" xmlns="http://www.w3.org/2000/svg"
 width="1094.000000pt" height="770.000000pt" viewBox="0 0 1094.000000 770.000000"
 preserveAspectRatio="xMidYMid meet">
<metadata>
Created by potrace 1.16, written by Peter Selinger 2001-2019
</metadata>
<g transform="translate(0.000000,770.000000) scale(0.100000,-0.100000)"
fill="#000000" stroke="none">
<path d="M6076 6949 c-44 -5 -82 -12 -85 -16 -3 -4 -27 -9 -53 -10 -26 -2 -96
-19 -155 -39 l-108 -37 -205 -2 c-289 -4 -453 -32 -740 -126 -723 -237 -1239
-851 -1344 -1599 -34 -246 -29 -407 19 -659 88 -452 341 -872 700 -1160 44
-35 84 -68 89 -72 4 -4 -24 -89 -63 -188 -82 -209 -101 -275 -82 -294 10 -9
16 -7 31 11 15 18 83 181 155 375 10 26 21 47 25 47 5 0 39 -19 76 -42 141
-85 344 -170 520 -217 86 -23 215 -41 369 -53 450 -32 908 94 1266 350 185
132 347 283 419 389 121 177 152 227 193 303 98 182 175 421 207 640 14 96 15
396 1 480 -6 38 -7 5 -3 -110 17 -563 -186 -1067 -591 -1462 -333 -325 -734
-499 -1217 -528 -69 -4 -101 -8 -72 -8 37 -2 51 -5 46 -13 -5 -8 -30 -10 -83
-5 -42 4 -121 11 -176 16 -302 27 -579 116 -832 267 -64 38 -93 61 -93 73 0
36 22 32 94 -17 97 -66 250 -143 366 -186 130 -47 160 -57 179 -57 9 0 -40 20
-109 44 -69 24 -147 53 -175 65 -78 35 -256 138 -298 174 l-38 32 95 225 c172
412 407 955 428 988 16 26 25 31 42 26 11 -3 98 -51 192 -105 292 -168 648
-334 874 -408 100 -33 323 -82 362 -80 17 1 19 2 5 6 -10 3 -29 11 -44 18 -14
7 -42 11 -62 9 -20 -2 -29 -1 -21 2 40 18 24 29 -88 62 -293 85 -592 218 -956
426 -218 125 -248 160 -218 261 20 71 38 101 91 158 56 61 89 83 273 190 219
127 408 250 401 260 -3 6 -2 7 4 4 11 -7 87 42 117 75 12 13 17 17 11 9 -5 -8
18 5 53 29 68 47 81 60 60 60 -10 1 -9 4 2 13 17 13 23 47 9 47 -5 0 -17 -9
-26 -20 -10 -11 -22 -20 -28 -20 -14 0 -145 -96 -140 -102 3 -3 -1 -5 -8 -5
-6 0 -57 -29 -112 -65 -124 -81 -246 -157 -305 -190 -25 -14 -82 -47 -128 -73
-80 -46 -112 -52 -112 -20 0 8 18 54 39 102 232 521 352 817 432 1055 45 134
49 168 19 168 -22 0 -49 -46 -73 -125 -20 -66 -124 -352 -142 -392 -8 -17 -15
-34 -15 -37 0 -3 -11 -30 -25 -60 -14 -30 -25 -57 -25 -60 0 -9 -302 -672
-333 -730 -24 -45 -47 -70 -93 -104 -75 -54 -109 -107 -100 -160 16 -96 18
-153 5 -185 -16 -40 -157 -375 -169 -402 -18 -40 -308 -731 -322 -770 -9 -21
-21 -41 -27 -43 -18 -6 -321 306 -387 398 -202 286 -320 592 -349 910 -7 67
-24 131 -25 91 0 -25 31 -226 46 -296 32 -147 107 -358 165 -461 11 -22 35
-64 52 -94 82 -147 275 -378 416 -496 38 -33 72 -65 75 -71 6 -15 -3 -43 -13
-43 -6 0 -68 51 -189 155 -31 27 -177 196 -229 265 -167 225 -289 517 -339
815 -29 170 -26 499 5 660 30 154 131 465 150 465 5 0 -5 -37 -20 -82 -39
-115 -86 -307 -98 -403 -17 -137 -19 -165 -12 -165 4 0 13 51 19 113 31 292
139 578 322 855 183 276 460 498 809 647 118 50 293 99 441 123 139 23 385 38
376 23 -3 -5 -34 -23 -68 -41 -88 -45 -298 -185 -393 -261 -193 -155 -478
-460 -620 -664 -176 -252 -297 -525 -336 -757 -14 -82 -8 -111 18 -106 14 2
20 17 25 57 10 89 86 304 158 449 131 265 322 515 587 772 246 238 418 367
641 483 l117 59 69 -6 c213 -20 499 -119 721 -251 33 -19 49 -26 35 -14 -37
32 -154 97 -265 150 -117 55 -257 101 -373 123 -95 18 -110 24 -91 37 37 23
173 -2 383 -72 181 -60 312 -125 470 -230 116 -77 151 -94 104 -49 -79 76
-335 219 -510 284 -94 35 -284 86 -320 86 -10 0 -18 4 -18 9 0 18 238 71 322
71 22 0 40 6 45 14 5 9 27 16 58 17 28 2 60 8 73 14 20 11 16 13 -39 19 -69 7
-72 7 -183 -5z"/>
<path d="M6320 6930 c-14 -4 -40 -14 -59 -23 l-33 -14 72 -7 c100 -10 210 -53
270 -104 27 -23 51 -38 54 -33 3 5 -2 15 -11 22 -9 8 -17 12 -19 9 -1 -3 -19
10 -39 29 -37 34 -36 51 5 51 11 0 12 -2 2 -8 -9 -6 -7 -13 10 -28 18 -15 20
-15 9 -1 -9 12 -10 17 -2 17 6 0 14 -7 17 -15 3 -8 15 -17 26 -21 16 -5 18 -8
7 -15 -12 -7 -11 -9 1 -10 8 -1 19 -1 24 0 5 1 3 -6 -5 -15 -9 -12 -9 -15 -1
-10 10 6 15 -1 14 -24 0 -3 15 -21 34 -40 28 -29 32 -31 28 -12 -4 12 -11 22
-16 22 -5 0 -7 4 -4 9 7 10 -40 75 -80 113 -42 39 -110 73 -190 97 -78 23 -78
23 -114 11z"/>
<path d="M6698 6398 c-3 -7 52 -69 122 -138 257 -253 427 -545 515 -885 46
-178 57 -259 65 -475 l6 -185 2 160 c2 187 -14 323 -58 500 -64 255 -171 477
-338 704 -71 96 -308 337 -314 319z"/>
<path d="M7210 2203 c0 -4 -1 -207 -2 -451 l-3 -442 58 0 57 0 0 158 c1 170 9
227 43 282 12 19 21 39 19 43 -1 5 2 6 7 2 6 -3 23 2 37 12 19 12 48 18 93 19
54 0 66 3 65 16 -1 10 4 14 12 11 8 -3 11 -10 8 -15 -4 -7 0 -7 12 0 21 11 47
5 39 -9 -3 -4 1 -19 10 -33 12 -18 13 -26 4 -32 -8 -4 -9 -3 -5 4 4 7 2 12 -3
12 -14 0 -14 -12 1 -47 7 -16 15 -98 18 -193 4 -133 8 -165 19 -165 8 0 16 -6
19 -14 3 -9 0 -11 -9 -5 -12 7 -12 5 0 -9 11 -15 11 -17 -2 -17 -8 0 -18 6
-20 13 -3 6 -6 2 -6 -10 -1 -21 3 -23 54 -23 l55 0 0 202 c0 243 -11 299 -73
361 -23 23 -44 36 -53 33 -8 -3 -13 -2 -10 3 3 5 -16 14 -44 21 -64 15 -142 5
-172 -23 -13 -12 -30 -22 -38 -22 -8 0 -14 -8 -14 -17 1 -10 -3 -15 -9 -11 -6
4 -8 0 -5 -8 4 -10 -3 -14 -26 -14 l-31 -1 0 186 0 185 -52 3 c-29 2 -53 -1
-53 -5z"/>
<path d="M3366 2159 c-32 -38 -33 -60 -2 -95 31 -37 90 -39 117 -5 28 35 25
85 -7 110 -39 31 -77 27 -108 -10z"/>
<path d="M1820 1738 l0 -438 65 0 65 0 2 163 3 162 105 3 c58 1 110 -1 115 -5
6 -5 53 -73 105 -152 52 -80 101 -150 108 -158 13 -13 133 -19 144 -7 6 6
-101 173 -174 272 -22 30 -38 55 -36 57 1 1 22 12 44 23 100 51 154 131 154
233 0 81 -26 145 -80 200 -75 75 -111 83 -387 83 l-233 1 0 -437z m497 296
c50 -37 73 -81 73 -140 0 -48 -4 -59 -35 -93 -45 -50 -90 -61 -242 -61 -178 0
-163 -14 -163 159 0 81 3 151 8 155 4 4 80 6 169 4 145 -3 164 -5 190 -24z"/>
<path d="M6360 2160 c-43 -43 -8 -120 56 -120 61 0 94 67 58 118 -20 29 -85
31 -114 2z"/>
<path d="M5350 1741 l2 -429 59 -7 c33 -4 62 -5 64 -3 2 2 5 144 6 316 1 225
4 312 13 312 6 0 26 -24 45 -53 102 -156 245 -347 253 -339 6 6 72 97 147 204
75 106 141 191 146 188 5 -3 11 -134 13 -310 2 -168 8 -307 12 -310 5 -3 30
-5 57 -5 l48 0 3 433 2 432 -64 0 -63 0 -149 -215 c-82 -118 -152 -215 -156
-215 -3 0 -57 73 -119 163 -62 89 -130 186 -152 215 l-39 52 -65 0 -64 0 1
-429z"/>
<path d="M2761 1923 c-66 -23 -143 -104 -171 -178 -18 -50 -21 -75 -18 -150 3
-61 10 -101 22 -125 35 -68 85 -118 148 -149 51 -26 73 -31 132 -31 80 0 132
19 188 68 19 18 38 29 42 25 3 -3 6 -24 6 -45 l0 -38 60 0 60 0 0 315 0 315
-60 0 -60 0 0 -39 c0 -51 -11 -57 -41 -24 -13 14 -46 36 -74 49 -60 28 -165
31 -234 7z m239 -124 c47 -26 88 -82 101 -136 24 -104 -39 -217 -140 -251
-202 -69 -361 192 -213 350 66 70 167 85 252 37z"/>
<path d="M3764 1916 c-66 -31 -120 -85 -153 -155 -22 -47 -26 -70 -26 -146 0
-76 4 -99 26 -145 36 -77 68 -111 136 -145 81 -41 183 -47 249 -14 26 12 61
35 79 50 37 33 45 29 45 -17 0 -38 19 -48 86 -42 l39 3 0 310 0 310 -62 3 -63
3 0 -41 c0 -47 -8 -49 -48 -15 -82 69 -211 86 -308 41z m231 -105 c46 -21 74
-50 104 -106 68 -129 -41 -305 -189 -305 -87 0 -178 70 -201 154 -47 174 127
330 286 257z"/>
<path d="M4621 1924 c-19 -8 -54 -30 -77 -49 l-43 -35 -3 42 -3 43 -62 3 -63
3 0 -310 0 -311 23 -6 c13 -3 41 -4 63 -2 l39 3 2 170 c3 184 12 232 49 283
35 45 73 62 143 62 50 0 65 -4 90 -26 54 -45 56 -54 61 -279 l5 -210 58 -3 57
-3 0 216 c0 126 -5 235 -11 260 -16 62 -77 129 -136 149 -58 20 -147 20 -192
0z"/>
<path d="M6726 1925 c-84 -30 -136 -91 -136 -161 0 -85 41 -125 165 -163 182
-57 208 -67 222 -88 12 -18 13 -29 4 -56 -23 -70 -133 -94 -221 -48 -43 22
-84 59 -91 80 -5 15 -109 -9 -109 -25 0 -24 48 -80 99 -116 63 -44 139 -63
222 -54 72 8 92 15 85 31 -3 8 2 11 15 8 24 -7 84 38 104 77 19 37 19 113 1
148 -19 37 -91 75 -205 107 -164 48 -190 66 -169 125 8 25 70 60 106 60 40 0
96 -24 131 -56 l38 -34 47 17 c25 10 46 20 46 24 0 4 -20 28 -45 53 -78 77
-208 107 -309 71z"/>
<path d="M3360 1575 c0 -337 -1 -358 -20 -395 -22 -44 -50 -56 -103 -46 -32 6
-34 5 -45 -33 -17 -56 -16 -58 34 -70 128 -33 232 39 254 175 6 32 10 209 10
392 l0 332 -65 0 -65 0 0 -355z"/>
<path d="M6362 1618 l3 -311 53 -3 52 -2 2 264 c1 145 2 278 3 296 4 62 -2 68
-61 68 l-54 0 2 -312z"/>
<path d="M7930 1562 c0 -71 4 -105 13 -114 9 -8 11 -21 6 -33 -4 -11 -8 -23
-8 -27 -1 -7 63 -28 86 -28 18 0 8 54 -11 58 -9 2 -16 8 -16 14 0 5 7 8 15 4
12 -4 15 5 15 50 0 32 -4 53 -9 49 -13 -7 -10 38 3 47 5 3 2 13 -8 23 -9 10
-14 20 -11 23 3 4 10 0 15 -8 6 -10 10 -11 10 -3 0 12 -34 35 -57 39 -7 1 -13
-2 -13 -8 0 -6 -6 -5 -15 2 -13 11 -15 0 -15 -88z"/>
</g>
</svg>
